<svg xmlns="http://www.w3.org/2000/svg" xmlns:xlink="http://www.w3.org/1999/xlink" width="500" zoomAndPan="magnify" viewBox="0 0 375 374.999991" height="500" preserveAspectRatio="xMidYMid meet" version="1.0"><defs><g/><clipPath id="1411d817a1"><path d="M 127 174 L 248 174 L 248 191.285156 L 127 191.285156 Z M 127 174 " clip-rule="nonzero"/></clipPath><clipPath id="8f3cbebf01"><path d="M 126 173 L 248 173 L 248 191.285156 L 126 191.285156 Z M 126 173 " clip-rule="nonzero"/></clipPath><clipPath id="da0323afbd"><path d="M 126 120.785156 L 188 120.785156 L 188 165 L 126 165 Z M 126 120.785156 " clip-rule="nonzero"/></clipPath><clipPath id="9cd86e1a0b"><path d="M 186 120.785156 L 248 120.785156 L 248 165 L 186 165 Z M 186 120.785156 " clip-rule="nonzero"/></clipPath><clipPath id="013a1c6844"><path d="M 111.074219 137 L 263 137 L 263 177 L 111.074219 177 Z M 111.074219 137 " clip-rule="nonzero"/></clipPath><clipPath id="2a9d788ddf"><path d="M 111.074219 137 L 263 137 L 263 178 L 111.074219 178 Z M 111.074219 137 " clip-rule="nonzero"/></clipPath><clipPath id="ffb318572d"><path d="M 187.125 174 L 248 174 L 248 190.535156 L 187.125 190.535156 Z M 187.125 174 " clip-rule="nonzero"/></clipPath><clipPath id="c0ad9717a7"><path d="M 187.125 173 L 248 173 L 248 190.535156 L 187.125 190.535156 Z M 187.125 173 " clip-rule="nonzero"/></clipPath><clipPath id="4e6e15bdb8"><path d="M 187.125 121 L 188 121 L 188 165 L 187.125 165 Z M 187.125 121 " clip-rule="nonzero"/></clipPath><clipPath id="dca0d0dab5"><path d="M 187.125 120.785156 L 188 120.785156 L 188 165 L 187.125 165 Z M 187.125 120.785156 " clip-rule="nonzero"/></clipPath><clipPath id="ffe01e4d2f"><path d="M 187.125 121 L 248 121 L 248 165 L 187.125 165 Z M 187.125 121 " clip-rule="nonzero"/></clipPath><clipPath id="61b58ba191"><path d="M 187.125 120.785156 L 248 120.785156 L 248 165 L 187.125 165 Z M 187.125 120.785156 " clip-rule="nonzero"/></clipPath><clipPath id="a78d6a80eb"><path d="M 187.125 157 L 188 157 L 188 172 L 187.125 172 Z M 187.125 157 " clip-rule="nonzero"/></clipPath><clipPath id="441d51d91e"><path d="M 187.125 156 L 188 156 L 188 173 L 187.125 173 Z M 187.125 156 " clip-rule="nonzero"/></clipPath><clipPath id="a410688ddc"><path d="M 187.125 157 L 245 157 L 245 172 L 187.125 172 Z M 187.125 157 " clip-rule="nonzero"/></clipPath><clipPath id="8d1ee639db"><path d="M 187.125 156 L 245 156 L 245 173 L 187.125 173 Z M 187.125 156 " clip-rule="nonzero"/></clipPath><clipPath id="da14c2b904"><path d="M 187.125 137 L 262.875 137 L 262.875 177 L 187.125 177 Z M 187.125 137 " clip-rule="nonzero"/></clipPath><clipPath id="8f40765eb1"><path d="M 187.125 137 L 262.875 137 L 262.875 178 L 187.125 178 Z M 187.125 137 " clip-rule="nonzero"/></clipPath></defs><path fill="#ffffff" d="M 236.191406 178.75 L 237.121094 182.984375 L 235.382812 182.984375 L 233.589844 178.75 L 236.191406 178.75 " fill-opacity="1" fill-rule="nonzero"/><path fill="#1d1d1b" d="M 235.566406 182.707031 L 236.78125 182.707031 L 235.96875 179.023438 L 234.003906 179.023438 Z M 237.464844 183.257812 L 235.203125 183.257812 L 233.175781 178.476562 L 236.410156 178.476562 L 237.464844 183.257812 " fill-opacity="1" fill-rule="nonzero"/><path fill="#ffffff" d="M 138.195312 178.75 L 137.265625 182.984375 L 139.003906 182.984375 L 140.796875 178.75 L 138.195312 178.75 " fill-opacity="1" fill-rule="nonzero"/><path fill="#1d1d1b" d="M 137.605469 182.707031 L 138.820312 182.707031 L 140.382812 179.023438 L 138.417969 179.023438 Z M 139.183594 183.257812 L 136.921875 183.257812 L 137.972656 178.476562 L 141.210938 178.476562 L 139.183594 183.257812 " fill-opacity="1" fill-rule="nonzero"/><g clip-path="url(#1411d817a1)"><path fill="#ffffff" d="M 247.113281 191.011719 L 243.585938 174.957031 L 238.808594 174.957031 L 238.808594 174.007812 L 136.535156 174.007812 L 136.351562 174.957031 L 130.800781 174.957031 L 127.273438 191.011719 L 130.457031 191.011719 L 135.578125 178.933594 L 238.808594 178.933594 L 243.929688 191.011719 L 247.113281 191.011719 " fill-opacity="1" fill-rule="nonzero"/></g><g clip-path="url(#8f3cbebf01)"><path fill="#1d1d1b" d="M 244.109375 190.734375 L 246.773438 190.734375 L 243.363281 175.230469 L 238.53125 175.230469 L 238.53125 174.285156 L 136.761719 174.285156 L 136.578125 175.230469 L 131.023438 175.230469 L 127.613281 190.734375 L 130.273438 190.734375 L 135.394531 178.660156 L 238.992188 178.660156 Z M 247.457031 191.285156 L 243.746094 191.285156 L 238.625 179.207031 L 135.761719 179.207031 L 130.640625 191.285156 L 126.929688 191.285156 L 130.582031 174.683594 L 136.125 174.683594 L 136.308594 173.734375 L 239.082031 173.734375 L 239.082031 174.683594 L 243.804688 174.683594 L 247.457031 191.285156 " fill-opacity="1" fill-rule="nonzero"/></g><path fill="#ffffff" d="M 127.273438 141.175781 C 127.273438 141.175781 128.355469 132.175781 128.910156 128.546875 C 129.464844 124.921875 131.957031 121.0625 136.664062 121.0625 C 141.371094 121.0625 177.367188 121.0625 181.242188 121.0625 C 185.121094 121.0625 187.191406 124.175781 187.191406 128.546875 C 187.191406 132.917969 187.191406 164.492188 187.191406 164.492188 L 132.234375 164.492188 L 127.273438 141.175781 " fill-opacity="1" fill-rule="nonzero"/><g clip-path="url(#da0323afbd)"><path fill="#1d1d1b" d="M 132.457031 164.21875 L 186.917969 164.21875 L 186.917969 128.546875 C 186.917969 124.101562 184.742188 121.335938 181.242188 121.335938 L 136.664062 121.335938 C 131.957031 121.335938 129.691406 125.242188 129.183594 128.589844 C 128.65625 132.039062 127.632812 140.46875 127.550781 141.164062 Z M 187.46875 164.765625 L 132.011719 164.765625 L 131.964844 164.550781 L 126.992188 141.1875 L 127 141.144531 C 127.011719 141.050781 128.089844 132.09375 128.636719 128.507812 C 129.222656 124.664062 131.933594 120.789062 136.664062 120.789062 L 181.242188 120.789062 C 185.082031 120.789062 187.46875 123.761719 187.46875 128.546875 L 187.46875 164.765625 " fill-opacity="1" fill-rule="nonzero"/></g><path fill="#ffffff" d="M 247.113281 141.175781 C 247.113281 141.175781 246.03125 132.175781 245.476562 128.546875 C 244.921875 124.921875 242.429688 121.0625 237.722656 121.0625 C 233.015625 121.0625 197.019531 121.0625 193.140625 121.0625 C 189.265625 121.0625 187.191406 124.175781 187.191406 128.546875 C 187.191406 132.917969 187.191406 164.492188 187.191406 164.492188 L 242.152344 164.492188 L 247.113281 141.175781 " fill-opacity="1" fill-rule="nonzero"/><g clip-path="url(#9cd86e1a0b)"><path fill="#1d1d1b" d="M 187.46875 164.21875 L 241.929688 164.21875 L 246.835938 141.164062 C 246.75 140.46875 245.730469 132.039062 245.203125 128.589844 C 244.695312 125.242188 242.425781 121.335938 237.722656 121.335938 L 193.140625 121.335938 C 189.640625 121.335938 187.46875 124.101562 187.46875 128.546875 Z M 242.375 164.765625 L 186.917969 164.765625 L 186.917969 128.546875 C 186.917969 123.761719 189.304688 120.789062 193.140625 120.789062 L 237.722656 120.789062 C 242.453125 120.789062 245.160156 124.664062 245.75 128.507812 C 246.296875 132.09375 247.375 141.050781 247.386719 141.144531 L 247.394531 141.1875 L 247.382812 141.234375 L 242.375 164.765625 " fill-opacity="1" fill-rule="nonzero"/></g><path fill="#ffffff" d="M 133.089844 160.835938 C 133.089844 160.835938 133.625 157.1875 139.851562 157.1875 L 182.972656 157.1875 C 185.304688 157.1875 187.191406 159.066406 187.191406 161.390625 L 187.191406 171.800781 L 134.726562 171.800781 L 130.292969 166.011719 L 133.089844 160.835938 " fill-opacity="1" fill-rule="nonzero"/><path fill="#1d1d1b" d="M 134.859375 171.527344 L 186.917969 171.527344 L 186.917969 161.390625 C 186.917969 159.222656 185.148438 157.460938 182.972656 157.460938 L 139.851562 157.460938 C 133.960938 157.460938 133.382812 160.738281 133.359375 160.878906 L 133.332031 160.964844 L 130.621094 165.984375 Z M 187.46875 172.074219 L 134.589844 172.074219 L 129.96875 166.035156 L 132.824219 160.746094 C 132.917969 160.265625 133.785156 156.914062 139.851562 156.914062 L 182.972656 156.914062 C 185.449219 156.914062 187.46875 158.921875 187.46875 161.390625 L 187.46875 172.074219 " fill-opacity="1" fill-rule="nonzero"/><path fill="#ffffff" d="M 241.296875 160.835938 C 241.296875 160.835938 240.761719 157.1875 234.535156 157.1875 L 191.414062 157.1875 C 189.082031 157.1875 187.191406 159.066406 187.191406 161.390625 L 187.191406 171.800781 L 239.660156 171.800781 L 244.09375 166.011719 L 241.296875 160.835938 " fill-opacity="1" fill-rule="nonzero"/><path fill="#1d1d1b" d="M 187.46875 171.527344 L 239.523438 171.527344 L 243.765625 165.984375 L 241.027344 160.878906 C 241.003906 160.734375 240.417969 157.460938 234.535156 157.460938 L 191.414062 157.460938 C 189.238281 157.460938 187.46875 159.222656 187.46875 161.390625 Z M 239.796875 172.074219 L 186.917969 172.074219 L 186.917969 161.390625 C 186.917969 158.921875 188.933594 156.914062 191.414062 156.914062 L 234.535156 156.914062 C 240.601562 156.914062 241.46875 160.265625 241.5625 160.746094 L 244.417969 166.035156 L 239.796875 172.074219 " fill-opacity="1" fill-rule="nonzero"/><g clip-path="url(#013a1c6844)"><path fill="#ffffff" d="M 257.339844 137.609375 L 252.007812 137.609375 C 249.769531 137.609375 247.789062 139.050781 247.113281 141.175781 L 239.386719 165.457031 L 134.996094 165.457031 L 127.273438 141.175781 C 126.597656 139.050781 124.617188 137.609375 122.378906 137.609375 L 117.046875 137.609375 C 113.546875 137.609375 111.070312 141.019531 112.171875 144.328125 L 121.125 171.261719 C 122.214844 174.546875 125.296875 176.761719 128.773438 176.761719 L 245.613281 176.761719 C 249.089844 176.761719 252.167969 174.546875 253.261719 171.261719 L 262.214844 144.328125 C 263.3125 141.019531 260.839844 137.609375 257.339844 137.609375 " fill-opacity="1" fill-rule="nonzero"/></g><g clip-path="url(#2a9d788ddf)"><path fill="#1d1d1b" d="M 117.046875 137.882812 C 115.464844 137.882812 114.03125 138.613281 113.105469 139.886719 C 112.183594 141.160156 111.9375 142.746094 112.433594 144.242188 L 121.382812 171.175781 C 122.441406 174.355469 125.410156 176.492188 128.773438 176.492188 L 245.613281 176.492188 C 248.976562 176.492188 251.945312 174.355469 253 171.175781 L 261.953125 144.242188 C 262.449219 142.746094 262.203125 141.160156 261.277344 139.886719 C 260.355469 138.613281 258.917969 137.882812 257.339844 137.882812 L 252.007812 137.882812 C 249.878906 137.882812 248.019531 139.238281 247.375 141.257812 L 239.589844 165.730469 L 134.796875 165.730469 L 127.007812 141.257812 C 126.367188 139.238281 124.503906 137.882812 122.378906 137.882812 Z M 245.613281 177.039062 L 128.773438 177.039062 C 125.171875 177.039062 121.992188 174.75 120.863281 171.347656 L 111.910156 144.414062 C 111.359375 142.75 111.632812 140.984375 112.660156 139.566406 C 113.6875 138.148438 115.289062 137.335938 117.046875 137.335938 L 122.378906 137.335938 C 124.746094 137.335938 126.820312 138.84375 127.535156 141.09375 L 135.199219 165.183594 L 239.1875 165.183594 L 246.851562 141.09375 C 247.566406 138.84375 249.636719 137.335938 252.007812 137.335938 L 257.339844 137.335938 C 259.097656 137.335938 260.695312 138.148438 261.726562 139.566406 C 262.753906 140.984375 263.027344 142.75 262.476562 144.414062 L 253.523438 171.347656 C 252.390625 174.75 249.214844 177.039062 245.613281 177.039062 " fill-opacity="1" fill-rule="nonzero"/></g><path fill="#100f0d" d="M 236.191406 178.75 L 237.121094 182.984375 L 235.382812 182.984375 L 233.589844 178.75 L 236.191406 178.75 " fill-opacity="1" fill-rule="nonzero"/><path fill="#ffffff" d="M 235.566406 182.707031 L 236.78125 182.707031 L 235.96875 179.023438 L 234.003906 179.023438 Z M 237.464844 183.257812 L 235.203125 183.257812 L 233.175781 178.476562 L 236.410156 178.476562 L 237.464844 183.257812 " fill-opacity="1" fill-rule="nonzero"/><g clip-path="url(#ffb318572d)"><path fill="#100f0d" d="M 247.113281 191.011719 L 243.585938 174.957031 L 238.808594 174.957031 L 238.808594 174.007812 L 136.535156 174.007812 L 136.351562 174.957031 L 130.800781 174.957031 L 127.273438 191.011719 L 130.457031 191.011719 L 135.578125 178.933594 L 238.808594 178.933594 L 243.929688 191.011719 L 247.113281 191.011719 " fill-opacity="1" fill-rule="nonzero"/></g><g clip-path="url(#c0ad9717a7)"><path fill="#ffffff" d="M 244.109375 190.734375 L 246.773438 190.734375 L 243.363281 175.230469 L 238.53125 175.230469 L 238.53125 174.285156 L 136.761719 174.285156 L 136.578125 175.230469 L 131.023438 175.230469 L 127.613281 190.734375 L 130.273438 190.734375 L 135.394531 178.660156 L 238.992188 178.660156 Z M 247.457031 191.285156 L 243.746094 191.285156 L 238.625 179.207031 L 135.761719 179.207031 L 130.640625 191.285156 L 126.929688 191.285156 L 130.582031 174.683594 L 136.125 174.683594 L 136.308594 173.734375 L 239.082031 173.734375 L 239.082031 174.683594 L 243.804688 174.683594 L 247.457031 191.285156 " fill-opacity="1" fill-rule="nonzero"/></g><g clip-path="url(#4e6e15bdb8)"><path fill="#100f0d" d="M 127.273438 141.175781 C 127.273438 141.175781 128.355469 132.175781 128.910156 128.546875 C 129.464844 124.921875 131.957031 121.0625 136.664062 121.0625 C 141.371094 121.0625 177.367188 121.0625 181.242188 121.0625 C 185.121094 121.0625 187.191406 124.175781 187.191406 128.546875 C 187.191406 132.917969 187.191406 164.492188 187.191406 164.492188 L 132.234375 164.492188 L 127.273438 141.175781 " fill-opacity="1" fill-rule="nonzero"/></g><g clip-path="url(#dca0d0dab5)"><path fill="#ffffff" d="M 132.457031 164.21875 L 186.917969 164.21875 L 186.917969 128.546875 C 186.917969 124.101562 184.742188 121.335938 181.242188 121.335938 L 136.664062 121.335938 C 131.957031 121.335938 129.691406 125.242188 129.183594 128.589844 C 128.65625 132.039062 127.632812 140.46875 127.550781 141.164062 Z M 187.46875 164.765625 L 132.011719 164.765625 L 131.964844 164.550781 L 126.992188 141.1875 L 127 141.144531 C 127.011719 141.050781 128.089844 132.09375 128.636719 128.507812 C 129.222656 124.664062 131.933594 120.789062 136.664062 120.789062 L 181.242188 120.789062 C 185.082031 120.789062 187.46875 123.761719 187.46875 128.546875 L 187.46875 164.765625 " fill-opacity="1" fill-rule="nonzero"/></g><g clip-path="url(#ffe01e4d2f)"><path fill="#100f0d" d="M 247.113281 141.175781 C 247.113281 141.175781 246.03125 132.175781 245.476562 128.546875 C 244.921875 124.921875 242.429688 121.0625 237.722656 121.0625 C 233.015625 121.0625 197.019531 121.0625 193.140625 121.0625 C 189.265625 121.0625 187.191406 124.175781 187.191406 128.546875 C 187.191406 132.917969 187.191406 164.492188 187.191406 164.492188 L 242.152344 164.492188 L 247.113281 141.175781 " fill-opacity="1" fill-rule="nonzero"/></g><g clip-path="url(#61b58ba191)"><path fill="#ffffff" d="M 187.46875 164.21875 L 241.929688 164.21875 L 246.835938 141.164062 C 246.75 140.46875 245.730469 132.039062 245.203125 128.589844 C 244.695312 125.242188 242.425781 121.335938 237.722656 121.335938 L 193.140625 121.335938 C 189.640625 121.335938 187.46875 124.101562 187.46875 128.546875 Z M 242.375 164.765625 L 186.917969 164.765625 L 186.917969 128.546875 C 186.917969 123.761719 189.304688 120.789062 193.140625 120.789062 L 237.722656 120.789062 C 242.453125 120.789062 245.160156 124.664062 245.75 128.507812 C 246.296875 132.09375 247.375 141.050781 247.386719 141.144531 L 247.394531 141.1875 L 247.382812 141.234375 L 242.375 164.765625 " fill-opacity="1" fill-rule="nonzero"/></g><g clip-path="url(#a78d6a80eb)"><path fill="#100f0d" d="M 133.089844 160.835938 C 133.089844 160.835938 133.625 157.1875 139.851562 157.1875 L 182.972656 157.1875 C 185.304688 157.1875 187.191406 159.066406 187.191406 161.390625 L 187.191406 171.800781 L 134.726562 171.800781 L 130.292969 166.011719 L 133.089844 160.835938 " fill-opacity="1" fill-rule="nonzero"/></g><g clip-path="url(#441d51d91e)"><path fill="#ffffff" d="M 134.859375 171.527344 L 186.917969 171.527344 L 186.917969 161.390625 C 186.917969 159.222656 185.148438 157.460938 182.972656 157.460938 L 139.851562 157.460938 C 133.960938 157.460938 133.382812 160.738281 133.359375 160.878906 L 133.332031 160.964844 L 130.621094 165.984375 Z M 187.46875 172.074219 L 134.589844 172.074219 L 129.96875 166.035156 L 132.824219 160.746094 C 132.917969 160.265625 133.785156 156.914062 139.851562 156.914062 L 182.972656 156.914062 C 185.449219 156.914062 187.46875 158.921875 187.46875 161.390625 L 187.46875 172.074219 " fill-opacity="1" fill-rule="nonzero"/></g><g clip-path="url(#a410688ddc)"><path fill="#100f0d" d="M 241.296875 160.835938 C 241.296875 160.835938 240.761719 157.1875 234.535156 157.1875 L 191.414062 157.1875 C 189.082031 157.1875 187.191406 159.066406 187.191406 161.390625 L 187.191406 171.800781 L 239.660156 171.800781 L 244.09375 166.011719 L 241.296875 160.835938 " fill-opacity="1" fill-rule="nonzero"/></g><g clip-path="url(#8d1ee639db)"><path fill="#ffffff" d="M 187.46875 171.527344 L 239.523438 171.527344 L 243.765625 165.984375 L 241.027344 160.878906 C 241.003906 160.734375 240.417969 157.460938 234.535156 157.460938 L 191.414062 157.460938 C 189.238281 157.460938 187.46875 159.222656 187.46875 161.390625 Z M 239.796875 172.074219 L 186.917969 172.074219 L 186.917969 161.390625 C 186.917969 158.921875 188.933594 156.914062 191.414062 156.914062 L 234.535156 156.914062 C 240.601562 156.914062 241.46875 160.265625 241.5625 160.746094 L 244.417969 166.035156 L 239.796875 172.074219 " fill-opacity="1" fill-rule="nonzero"/></g><g clip-path="url(#da14c2b904)"><path fill="#100f0d" d="M 257.339844 137.609375 L 252.007812 137.609375 C 249.769531 137.609375 247.789062 139.050781 247.113281 141.175781 L 239.386719 165.457031 L 134.996094 165.457031 L 127.273438 141.175781 C 126.597656 139.050781 124.617188 137.609375 122.378906 137.609375 L 117.046875 137.609375 C 113.546875 137.609375 111.070312 141.019531 112.171875 144.328125 L 121.125 171.261719 C 122.214844 174.546875 125.296875 176.761719 128.773438 176.761719 L 245.613281 176.761719 C 249.089844 176.761719 252.167969 174.546875 253.261719 171.261719 L 262.214844 144.328125 C 263.3125 141.019531 260.839844 137.609375 257.339844 137.609375 " fill-opacity="1" fill-rule="nonzero"/></g><g clip-path="url(#8f40765eb1)"><path fill="#ffffff" d="M 117.046875 137.882812 C 115.464844 137.882812 114.03125 138.613281 113.105469 139.886719 C 112.183594 141.160156 111.9375 142.746094 112.433594 144.242188 L 121.382812 171.175781 C 122.441406 174.355469 125.410156 176.492188 128.773438 176.492188 L 245.613281 176.492188 C 248.976562 176.492188 251.945312 174.355469 253 171.175781 L 261.953125 144.242188 C 262.449219 142.746094 262.203125 141.160156 261.277344 139.886719 C 260.355469 138.613281 258.917969 137.882812 257.339844 137.882812 L 252.007812 137.882812 C 249.878906 137.882812 248.019531 139.238281 247.375 141.257812 L 239.589844 165.730469 L 134.796875 165.730469 L 127.007812 141.257812 C 126.367188 139.238281 124.503906 137.882812 122.378906 137.882812 Z M 245.613281 177.039062 L 128.773438 177.039062 C 125.171875 177.039062 121.992188 174.75 120.863281 171.347656 L 111.910156 144.414062 C 111.359375 142.75 111.632812 140.984375 112.660156 139.566406 C 113.6875 138.148438 115.289062 137.335938 117.046875 137.335938 L 122.378906 137.335938 C 124.746094 137.335938 126.820312 138.84375 127.535156 141.09375 L 135.199219 165.183594 L 239.1875 165.183594 L 246.851562 141.09375 C 247.566406 138.84375 249.636719 137.335938 252.007812 137.335938 L 257.339844 137.335938 C 259.097656 137.335938 260.695312 138.148438 261.726562 139.566406 C 262.753906 140.984375 263.027344 142.75 262.476562 144.414062 L 253.523438 171.347656 C 252.390625 174.75 249.214844 177.039062 245.613281 177.039062 " fill-opacity="1" fill-rule="nonzero"/></g><g fill="#000000" fill-opacity="1"><g transform="translate(98.63728, 281.432619)"><g><path d="M 0.453125 -0.28125 C 0.453125 -0.332031 0.457031 -0.367188 0.46875 -0.390625 L 4.359375 -12.984375 C 4.410156 -13.148438 4.519531 -13.234375 4.6875 -13.234375 C 4.851562 -13.234375 4.96875 -13.148438 5.03125 -12.984375 L 8.890625 -0.390625 C 8.890625 -0.378906 8.890625 -0.363281 8.890625 -0.34375 C 8.898438 -0.332031 8.90625 -0.320312 8.90625 -0.3125 C 8.90625 -0.21875 8.867188 -0.140625 8.796875 -0.078125 C 8.722656 -0.0234375 8.640625 0 8.546875 0 C 8.398438 0 8.304688 -0.078125 8.265625 -0.234375 L 7.34375 -3.171875 L 2 -3.171875 L 1.09375 -0.234375 C 1.039062 -0.078125 0.929688 0 0.765625 0 C 0.554688 0 0.453125 -0.09375 0.453125 -0.28125 Z M 2.1875 -3.828125 L 7.140625 -3.828125 L 4.6875 -11.859375 Z M 2.1875 -3.828125 "/></g></g></g><g fill="#000000" fill-opacity="1"><g transform="translate(117.438053, 281.432619)"><g><path d="M 1.484375 -0.328125 L 1.484375 -12.8125 C 1.484375 -13 1.59375 -13.101562 1.8125 -13.125 L 4.984375 -13.125 C 6.054688 -13.125 6.910156 -12.828125 7.546875 -12.234375 C 8.191406 -11.640625 8.515625 -10.703125 8.515625 -9.421875 L 8.515625 -9.203125 C 8.515625 -7.921875 8.191406 -6.984375 7.546875 -6.390625 C 6.910156 -5.796875 6.054688 -5.5 4.984375 -5.5 L 2.140625 -5.5 L 2.140625 -0.328125 C 2.140625 -0.109375 2.03125 0 1.8125 0 C 1.59375 0 1.484375 -0.109375 1.484375 -0.328125 Z M 2.140625 -6.140625 L 4.984375 -6.140625 C 5.910156 -6.140625 6.617188 -6.394531 7.109375 -6.90625 C 7.609375 -7.425781 7.859375 -8.191406 7.859375 -9.203125 L 7.859375 -9.421875 C 7.859375 -10.441406 7.609375 -11.207031 7.109375 -11.71875 C 6.617188 -12.226562 5.910156 -12.484375 4.984375 -12.484375 L 2.140625 -12.484375 Z M 2.140625 -6.140625 "/></g></g></g><g fill="#000000" fill-opacity="1"><g transform="translate(136.095203, 281.432619)"><g><path d="M 0.453125 -0.28125 C 0.453125 -0.332031 0.457031 -0.367188 0.46875 -0.390625 L 4.359375 -12.984375 C 4.410156 -13.148438 4.519531 -13.234375 4.6875 -13.234375 C 4.851562 -13.234375 4.96875 -13.148438 5.03125 -12.984375 L 8.890625 -0.390625 C 8.890625 -0.378906 8.890625 -0.363281 8.890625 -0.34375 C 8.898438 -0.332031 8.90625 -0.320312 8.90625 -0.3125 C 8.90625 -0.21875 8.867188 -0.140625 8.796875 -0.078125 C 8.722656 -0.0234375 8.640625 0 8.546875 0 C 8.398438 0 8.304688 -0.078125 8.265625 -0.234375 L 7.34375 -3.171875 L 2 -3.171875 L 1.09375 -0.234375 C 1.039062 -0.078125 0.929688 0 0.765625 0 C 0.554688 0 0.453125 -0.09375 0.453125 -0.28125 Z M 2.1875 -3.828125 L 7.140625 -3.828125 L 4.6875 -11.859375 Z M 2.1875 -3.828125 "/></g></g></g><g fill="#000000" fill-opacity="1"><g transform="translate(154.895974, 281.432619)"><g><path d="M 1.484375 -0.328125 L 1.484375 -12.8125 C 1.484375 -13 1.59375 -13.101562 1.8125 -13.125 L 4.8125 -13.125 C 5.914062 -13.125 6.804688 -12.851562 7.484375 -12.3125 C 8.171875 -11.78125 8.515625 -10.90625 8.515625 -9.6875 C 8.515625 -7.65625 7.507812 -6.519531 5.5 -6.28125 L 8.453125 -0.515625 C 8.492188 -0.441406 8.515625 -0.378906 8.515625 -0.328125 C 8.515625 -0.222656 8.484375 -0.140625 8.421875 -0.078125 C 8.359375 -0.0234375 8.28125 0 8.1875 0 C 8.132812 0 8.085938 -0.0078125 8.046875 -0.03125 C 8.003906 -0.0625 7.960938 -0.101562 7.921875 -0.15625 C 7.878906 -0.21875 7.847656 -0.269531 7.828125 -0.3125 L 7.75 -0.5 C 7.707031 -0.59375 7.679688 -0.640625 7.671875 -0.640625 L 4.796875 -6.25 L 2.140625 -6.25 L 2.140625 -0.328125 C 2.140625 -0.109375 2.03125 0 1.8125 0 C 1.59375 0 1.484375 -0.109375 1.484375 -0.328125 Z M 2.140625 -6.890625 L 4.8125 -6.890625 C 5.757812 -6.890625 6.503906 -7.117188 7.046875 -7.578125 C 7.585938 -8.035156 7.859375 -8.738281 7.859375 -9.6875 C 7.859375 -10.644531 7.585938 -11.347656 7.046875 -11.796875 C 6.503906 -12.253906 5.757812 -12.484375 4.8125 -12.484375 L 2.140625 -12.484375 Z M 2.140625 -6.890625 "/></g></g></g><g fill="#000000" fill-opacity="1"><g transform="translate(173.481316, 281.432619)"><g><path d="M 0.34375 -12.578125 C 0.28125 -12.640625 0.25 -12.710938 0.25 -12.796875 C 0.25 -12.878906 0.28125 -12.953125 0.34375 -13.015625 C 0.40625 -13.085938 0.484375 -13.125 0.578125 -13.125 L 7.59375 -13.125 C 7.8125 -13.125 7.921875 -13.019531 7.921875 -12.8125 C 7.921875 -12.59375 7.8125 -12.484375 7.59375 -12.484375 L 4.421875 -12.484375 L 4.421875 -0.328125 C 4.421875 -0.109375 4.3125 0 4.09375 0 C 3.875 0 3.765625 -0.109375 3.765625 -0.328125 L 3.765625 -12.484375 L 0.578125 -12.484375 C 0.484375 -12.484375 0.40625 -12.515625 0.34375 -12.578125 Z M 0.34375 -12.578125 "/></g></g></g><g fill="#000000" fill-opacity="1"><g transform="translate(191.097182, 281.432619)"><g><path d="M 1.484375 -0.328125 L 1.484375 -12.8125 C 1.484375 -13.019531 1.59375 -13.125 1.8125 -13.125 C 1.945312 -13.125 2.132812 -12.910156 2.375 -12.484375 L 5.859375 -5.625 L 9.359375 -12.484375 C 9.597656 -12.910156 9.78125 -13.125 9.90625 -13.125 C 10.125 -13.125 10.234375 -13.019531 10.234375 -12.8125 L 10.234375 -0.328125 C 10.234375 -0.109375 10.125 0 9.90625 0 C 9.695312 0 9.59375 -0.109375 9.59375 -0.328125 L 9.59375 -11.546875 L 6.1875 -5.015625 C 6.070312 -4.785156 5.960938 -4.671875 5.859375 -4.671875 C 5.734375 -4.671875 5.617188 -4.785156 5.515625 -5.015625 L 2.140625 -11.546875 L 2.140625 -0.328125 C 2.140625 -0.109375 2.03125 0 1.8125 0 C 1.59375 0 1.484375 -0.109375 1.484375 -0.328125 Z M 1.484375 -0.328125 "/></g></g></g><g fill="#000000" fill-opacity="1"><g transform="translate(212.267766, 281.432619)"><g><path d="M 1.484375 -0.328125 L 1.484375 -12.796875 C 1.484375 -13.015625 1.59375 -13.125 1.8125 -13.125 L 8.203125 -13.125 C 8.410156 -13.125 8.515625 -13.019531 8.515625 -12.8125 C 8.515625 -12.59375 8.410156 -12.484375 8.203125 -12.484375 L 2.140625 -12.484375 L 2.140625 -6.890625 L 5.015625 -6.890625 C 5.210938 -6.890625 5.3125 -6.773438 5.3125 -6.546875 C 5.3125 -6.347656 5.210938 -6.25 5.015625 -6.25 L 2.140625 -6.25 L 2.140625 -0.640625 L 8.203125 -0.640625 C 8.410156 -0.640625 8.515625 -0.53125 8.515625 -0.3125 C 8.515625 -0.101562 8.410156 0 8.203125 0 L 1.8125 0 C 1.59375 0 1.484375 -0.109375 1.484375 -0.328125 Z M 1.484375 -0.328125 "/></g></g></g><g fill="#000000" fill-opacity="1"><g transform="translate(230.655617, 281.432619)"><g><path d="M 1.484375 -0.328125 L 1.484375 -12.8125 C 1.484375 -13.019531 1.59375 -13.125 1.8125 -13.125 C 1.945312 -13.125 2.132812 -12.910156 2.375 -12.484375 L 7.859375 -1.59375 L 7.859375 -12.8125 C 7.859375 -13.019531 7.96875 -13.125 8.1875 -13.125 C 8.40625 -13.125 8.515625 -13.019531 8.515625 -12.8125 L 8.515625 -0.328125 C 8.515625 -0.109375 8.40625 0 8.1875 0 C 8.050781 0 7.878906 -0.210938 7.671875 -0.640625 L 2.140625 -11.546875 L 2.140625 -0.328125 C 2.140625 -0.109375 2.03125 0 1.8125 0 C 1.59375 0 1.484375 -0.109375 1.484375 -0.328125 Z M 1.484375 -0.328125 "/></g></g></g><g fill="#000000" fill-opacity="1"><g transform="translate(250.102698, 281.432619)"><g><path d="M 0.34375 -12.578125 C 0.28125 -12.640625 0.25 -12.710938 0.25 -12.796875 C 0.25 -12.878906 0.28125 -12.953125 0.34375 -13.015625 C 0.40625 -13.085938 0.484375 -13.125 0.578125 -13.125 L 7.59375 -13.125 C 7.8125 -13.125 7.921875 -13.019531 7.921875 -12.8125 C 7.921875 -12.59375 7.8125 -12.484375 7.59375 -12.484375 L 4.421875 -12.484375 L 4.421875 -0.328125 C 4.421875 -0.109375 4.3125 0 4.09375 0 C 3.875 0 3.765625 -0.109375 3.765625 -0.328125 L 3.765625 -12.484375 L 0.578125 -12.484375 C 0.484375 -12.484375 0.40625 -12.515625 0.34375 -12.578125 Z M 0.34375 -12.578125 "/></g></g></g><g fill="#000000" fill-opacity="1"><g transform="translate(267.718564, 281.432619)"><g><path d="M 0.75 -1.703125 C 0.75 -1.785156 0.785156 -1.867188 0.859375 -1.953125 C 0.929688 -2.035156 1 -2.078125 1.0625 -2.078125 C 1.125 -2.078125 1.21875 -1.992188 1.34375 -1.828125 C 1.476562 -1.671875 1.628906 -1.492188 1.796875 -1.296875 C 1.972656 -1.109375 2.265625 -0.929688 2.671875 -0.765625 C 3.085938 -0.609375 3.570312 -0.53125 4.125 -0.53125 C 5.101562 -0.53125 5.847656 -0.78125 6.359375 -1.28125 C 6.867188 -1.78125 7.125 -2.503906 7.125 -3.453125 C 7.125 -4.066406 7.015625 -4.585938 6.796875 -5.015625 C 6.578125 -5.441406 6.285156 -5.765625 5.921875 -5.984375 C 5.566406 -6.203125 5.171875 -6.390625 4.734375 -6.546875 L 3.46875 -7 C 3.03125 -7.144531 2.628906 -7.328125 2.265625 -7.546875 C 1.910156 -7.765625 1.625 -8.082031 1.40625 -8.5 C 1.1875 -8.914062 1.078125 -9.421875 1.078125 -10.015625 C 1.078125 -10.628906 1.1875 -11.15625 1.40625 -11.59375 C 1.625 -12.03125 1.921875 -12.351562 2.296875 -12.5625 C 2.679688 -12.769531 3.054688 -12.914062 3.421875 -13 C 3.796875 -13.082031 4.191406 -13.125 4.609375 -13.125 C 5.328125 -13.125 5.976562 -13.019531 6.5625 -12.8125 C 7.15625 -12.613281 7.453125 -12.40625 7.453125 -12.1875 C 7.453125 -12.101562 7.414062 -12.015625 7.34375 -11.921875 C 7.269531 -11.835938 7.195312 -11.796875 7.125 -11.796875 C 7.082031 -11.796875 6.957031 -11.851562 6.75 -11.96875 C 6.539062 -12.082031 6.25 -12.195312 5.875 -12.3125 C 5.5 -12.425781 5.070312 -12.484375 4.59375 -12.484375 C 4.09375 -12.484375 3.640625 -12.421875 3.234375 -12.296875 C 2.835938 -12.179688 2.484375 -11.929688 2.171875 -11.546875 C 1.867188 -11.171875 1.71875 -10.679688 1.71875 -10.078125 C 1.71875 -9.554688 1.828125 -9.117188 2.046875 -8.765625 C 2.273438 -8.410156 2.566406 -8.144531 2.921875 -7.96875 C 3.285156 -7.789062 3.675781 -7.628906 4.09375 -7.484375 C 4.519531 -7.335938 4.945312 -7.175781 5.375 -7 C 5.8125 -6.832031 6.207031 -6.625 6.5625 -6.375 C 6.925781 -6.125 7.21875 -5.753906 7.4375 -5.265625 C 7.664062 -4.785156 7.78125 -4.195312 7.78125 -3.5 C 7.78125 -2.28125 7.457031 -1.375 6.8125 -0.78125 C 6.175781 -0.1875 5.3125 0.109375 4.21875 0.109375 C 3.675781 0.109375 3.175781 0.0351562 2.71875 -0.109375 C 2.257812 -0.253906 1.890625 -0.425781 1.609375 -0.625 C 1.335938 -0.820312 1.125 -1.019531 0.96875 -1.21875 C 0.820312 -1.414062 0.75 -1.578125 0.75 -1.703125 Z M 0.75 -1.703125 "/></g></g></g><g fill="#000000" fill-opacity="1"><g transform="translate(103.853537, 245.626975)"><g><path d="M 15.359375 -28.546875 C 15.472656 -28.734375 15.640625 -28.828125 15.859375 -28.828125 L 18.984375 -28.828125 C 19.265625 -28.828125 19.40625 -28.691406 19.40625 -28.421875 L 19.40625 -0.40625 C 19.40625 -0.132812 19.265625 0 18.984375 0 L 15.859375 0 C 15.585938 0 15.453125 -0.132812 15.453125 -0.40625 L 15.453125 -20.84375 C 15.453125 -20.925781 15.429688 -20.96875 15.390625 -20.96875 C 15.347656 -20.96875 15.296875 -20.9375 15.234375 -20.875 L 11.28125 -13.515625 C 11.195312 -13.316406 11.078125 -13.21875 10.921875 -13.21875 C 10.753906 -13.21875 10.628906 -13.316406 10.546875 -13.515625 L 6.625 -20.84375 C 6.570312 -20.894531 6.523438 -20.921875 6.484375 -20.921875 C 6.441406 -20.921875 6.421875 -20.878906 6.421875 -20.796875 L 6.421875 -0.40625 C 6.421875 -0.132812 6.285156 0 6.015625 0 L 2.890625 0 C 2.609375 0 2.46875 -0.132812 2.46875 -0.40625 L 2.46875 -28.421875 C 2.46875 -28.691406 2.609375 -28.828125 2.890625 -28.828125 L 6.015625 -28.828125 C 6.203125 -28.828125 6.363281 -28.734375 6.5 -28.546875 L 10.828125 -20.796875 C 10.859375 -20.773438 10.898438 -20.765625 10.953125 -20.765625 C 11.003906 -20.765625 11.046875 -20.773438 11.078125 -20.796875 Z M 15.359375 -28.546875 "/></g></g></g><g fill="#000000" fill-opacity="1"><g transform="translate(135.482585, 245.626975)"><g><path d="M 13.84375 0 C 13.59375 0 13.441406 -0.125 13.390625 -0.375 L 12.484375 -5.109375 C 12.484375 -5.160156 12.460938 -5.195312 12.421875 -5.21875 C 12.378906 -5.25 12.332031 -5.265625 12.28125 -5.265625 L 5.5625 -5.265625 C 5.507812 -5.265625 5.460938 -5.25 5.421875 -5.21875 C 5.378906 -5.195312 5.359375 -5.160156 5.359375 -5.109375 L 4.484375 -0.375 C 4.460938 -0.125 4.3125 0 4.03125 0 L 0.90625 0 C 0.769531 0 0.664062 -0.0390625 0.59375 -0.125 C 0.53125 -0.207031 0.507812 -0.316406 0.53125 -0.453125 L 6.671875 -28.453125 C 6.722656 -28.703125 6.875 -28.828125 7.125 -28.828125 L 10.796875 -28.828125 C 11.066406 -28.828125 11.21875 -28.703125 11.25 -28.453125 L 17.421875 -0.453125 L 17.421875 -0.375 C 17.421875 -0.125 17.296875 0 17.046875 0 Z M 6.046875 -8.5625 C 6.046875 -8.457031 6.085938 -8.40625 6.171875 -8.40625 L 11.65625 -8.40625 C 11.738281 -8.40625 11.78125 -8.457031 11.78125 -8.5625 L 8.984375 -23.1875 C 8.953125 -23.238281 8.921875 -23.265625 8.890625 -23.265625 C 8.867188 -23.265625 8.84375 -23.238281 8.8125 -23.1875 Z M 6.046875 -8.5625 "/></g></g></g><g fill="#000000" fill-opacity="1"><g transform="translate(163.240812, 245.626975)"><g><path d="M 14 0 C 13.757812 0 13.597656 -0.109375 13.515625 -0.328125 L 9.71875 -12.609375 C 9.6875 -12.691406 9.632812 -12.734375 9.5625 -12.734375 L 6.671875 -12.734375 C 6.554688 -12.734375 6.5 -12.675781 6.5 -12.5625 L 6.5 -0.40625 C 6.5 -0.132812 6.363281 0 6.09375 0 L 2.96875 0 C 2.6875 0 2.546875 -0.132812 2.546875 -0.40625 L 2.546875 -28.421875 C 2.546875 -28.691406 2.6875 -28.828125 2.96875 -28.828125 L 10.34375 -28.828125 C 11.738281 -28.828125 12.972656 -28.484375 14.046875 -27.796875 C 15.117188 -27.109375 15.945312 -26.140625 16.53125 -24.890625 C 17.125 -23.648438 17.421875 -22.234375 17.421875 -20.640625 C 17.421875 -18.910156 17.0625 -17.40625 16.34375 -16.125 C 15.632812 -14.84375 14.660156 -13.914062 13.421875 -13.34375 C 13.335938 -13.257812 13.3125 -13.175781 13.34375 -13.09375 L 17.546875 -0.453125 L 17.59375 -0.28125 C 17.59375 -0.09375 17.46875 0 17.21875 0 Z M 6.671875 -25.40625 C 6.554688 -25.40625 6.5 -25.351562 6.5 -25.25 L 6.5 -16.015625 C 6.5 -15.910156 6.554688 -15.859375 6.671875 -15.859375 L 9.71875 -15.859375 C 10.84375 -15.859375 11.75 -16.289062 12.4375 -17.15625 C 13.125 -18.019531 13.46875 -19.164062 13.46875 -20.59375 C 13.46875 -22.070312 13.125 -23.242188 12.4375 -24.109375 C 11.75 -24.972656 10.84375 -25.40625 9.71875 -25.40625 Z M 6.671875 -25.40625 "/></g></g></g><g fill="#000000" fill-opacity="1"><g transform="translate(191.699078, 245.626975)"><g><path d="M 2.96875 0 C 2.6875 0 2.546875 -0.132812 2.546875 -0.40625 L 2.546875 -28.421875 C 2.546875 -28.691406 2.6875 -28.828125 2.96875 -28.828125 L 6.09375 -28.828125 C 6.363281 -28.828125 6.5 -28.691406 6.5 -28.421875 L 6.5 -0.40625 C 6.5 -0.132812 6.363281 0 6.09375 0 Z M 2.96875 0 "/></g></g></g><g fill="#000000" fill-opacity="1"><g transform="translate(210.562656, 245.626975)"><g><path d="M 16.34375 -25.828125 C 16.34375 -25.546875 16.207031 -25.40625 15.9375 -25.40625 L 6.671875 -25.40625 C 6.554688 -25.40625 6.5 -25.351562 6.5 -25.25 L 6.5 -16.3125 C 6.5 -16.195312 6.554688 -16.140625 6.671875 -16.140625 L 12.359375 -16.140625 C 12.628906 -16.140625 12.765625 -16.003906 12.765625 -15.734375 L 12.765625 -13.140625 C 12.765625 -12.867188 12.628906 -12.734375 12.359375 -12.734375 L 6.671875 -12.734375 C 6.554688 -12.734375 6.5 -12.675781 6.5 -12.5625 L 6.5 -3.578125 C 6.5 -3.472656 6.554688 -3.421875 6.671875 -3.421875 L 15.9375 -3.421875 C 16.207031 -3.421875 16.34375 -3.28125 16.34375 -3 L 16.34375 -0.40625 C 16.34375 -0.132812 16.207031 0 15.9375 0 L 2.96875 0 C 2.6875 0 2.546875 -0.132812 2.546875 -0.40625 L 2.546875 -28.421875 C 2.546875 -28.691406 2.6875 -28.828125 2.96875 -28.828125 L 15.9375 -28.828125 C 16.207031 -28.828125 16.34375 -28.691406 16.34375 -28.421875 Z M 16.34375 -25.828125 "/></g></g></g><g fill="#000000" fill-opacity="1"><g transform="translate(238.156183, 245.626975)"><g><path d="M 1.609375 -20.015625 C 1.328125 -20.015625 1.1875 -20.148438 1.1875 -20.421875 L 0.828125 -28.34375 C 0.828125 -28.613281 0.945312 -28.75 1.1875 -28.75 L 4.40625 -28.75 C 4.65625 -28.75 4.78125 -28.613281 4.78125 -28.34375 L 4.359375 -20.421875 C 4.359375 -20.148438 4.222656 -20.015625 3.953125 -20.015625 Z M 1.609375 -20.015625 "/></g></g></g><g fill="#000000" fill-opacity="1"><g transform="translate(253.601906, 245.626975)"><g><path d="M 8.8125 0.328125 C 6.644531 0.328125 4.894531 -0.347656 3.5625 -1.703125 C 2.226562 -3.066406 1.5625 -4.847656 1.5625 -7.046875 L 1.5625 -8.109375 C 1.5625 -8.390625 1.703125 -8.53125 1.984375 -8.53125 L 5.03125 -8.53125 C 5.300781 -8.53125 5.4375 -8.390625 5.4375 -8.109375 L 5.4375 -7.25 C 5.4375 -5.988281 5.75 -4.976562 6.375 -4.21875 C 7.007812 -3.46875 7.820312 -3.09375 8.8125 -3.09375 C 9.800781 -3.09375 10.617188 -3.453125 11.265625 -4.171875 C 11.910156 -4.898438 12.234375 -5.859375 12.234375 -7.046875 C 12.234375 -7.835938 12.0625 -8.535156 11.71875 -9.140625 C 11.375 -9.742188 10.921875 -10.285156 10.359375 -10.765625 C 9.796875 -11.242188 8.882812 -11.953125 7.625 -12.890625 C 6.21875 -13.929688 5.113281 -14.820312 4.3125 -15.5625 C 3.519531 -16.3125 2.847656 -17.207031 2.296875 -18.25 C 1.753906 -19.289062 1.484375 -20.507812 1.484375 -21.90625 C 1.484375 -24.132812 2.140625 -25.898438 3.453125 -27.203125 C 4.773438 -28.503906 6.492188 -29.15625 8.609375 -29.15625 C 10.804688 -29.15625 12.566406 -28.453125 13.890625 -27.046875 C 15.222656 -25.648438 15.890625 -23.816406 15.890625 -21.546875 L 15.890625 -20.515625 C 15.890625 -20.234375 15.753906 -20.09375 15.484375 -20.09375 L 12.4375 -20.09375 C 12.164062 -20.09375 12.03125 -20.234375 12.03125 -20.515625 L 12.03125 -21.625 C 12.03125 -22.863281 11.710938 -23.859375 11.078125 -24.609375 C 10.441406 -25.367188 9.617188 -25.75 8.609375 -25.75 C 7.648438 -25.75 6.867188 -25.410156 6.265625 -24.734375 C 5.660156 -24.054688 5.359375 -23.113281 5.359375 -21.90625 C 5.359375 -20.8125 5.660156 -19.882812 6.265625 -19.125 C 6.867188 -18.375 8.035156 -17.367188 9.765625 -16.109375 C 11.410156 -14.867188 12.648438 -13.863281 13.484375 -13.09375 C 14.328125 -12.320312 14.972656 -11.476562 15.421875 -10.5625 C 15.878906 -9.644531 16.109375 -8.554688 16.109375 -7.296875 C 16.109375 -4.984375 15.429688 -3.132812 14.078125 -1.75 C 12.734375 -0.363281 10.976562 0.328125 8.8125 0.328125 Z M 8.8125 0.328125 "/></g></g></g><g fill="#000000" fill-opacity="1"><g transform="translate(166.830195, 95.253923)"><g><path d="M 0.421875 -0.578125 C 0.421875 -1.128906 0.507812 -1.640625 0.6875 -2.109375 C 0.863281 -2.585938 1.078125 -3.015625 1.328125 -3.390625 C 1.578125 -3.765625 1.910156 -4.207031 2.328125 -4.71875 C 2.753906 -5.238281 3.085938 -5.679688 3.328125 -6.046875 C 3.578125 -6.421875 3.789062 -6.84375 3.96875 -7.3125 C 4.144531 -7.789062 4.234375 -8.304688 4.234375 -8.859375 C 4.234375 -9.191406 4.1875 -9.445312 4.09375 -9.625 C 4 -9.8125 3.828125 -9.90625 3.578125 -9.90625 C 3.179688 -9.90625 2.984375 -9.539062 2.984375 -8.8125 L 2.984375 -7.34375 L 0.421875 -7.34375 L 0.390625 -8.078125 C 0.390625 -9.003906 0.484375 -9.765625 0.671875 -10.359375 C 0.859375 -10.953125 1.1875 -11.398438 1.65625 -11.703125 C 2.132812 -12.015625 2.785156 -12.171875 3.609375 -12.171875 C 4.628906 -12.171875 5.414062 -11.882812 5.96875 -11.3125 C 6.519531 -10.75 6.796875 -9.945312 6.796875 -8.90625 C 6.796875 -8.238281 6.703125 -7.632812 6.515625 -7.09375 C 6.335938 -6.550781 6.113281 -6.078125 5.84375 -5.671875 C 5.582031 -5.265625 5.226562 -4.789062 4.78125 -4.25 C 4.457031 -3.863281 4.191406 -3.519531 3.984375 -3.21875 C 3.773438 -2.914062 3.585938 -2.601562 3.421875 -2.28125 L 6.71875 -2.28125 L 6.71875 0 L 0.421875 0 Z M 0.421875 -0.578125 "/></g></g></g><g fill="#000000" fill-opacity="1"><g transform="translate(178.282524, 95.253923)"><g><path d="M 3.484375 0.109375 C 2.460938 0.109375 1.671875 -0.175781 1.109375 -0.75 C 0.554688 -1.332031 0.28125 -2.160156 0.28125 -3.234375 L 0.28125 -8.703125 C 0.28125 -9.847656 0.546875 -10.722656 1.078125 -11.328125 C 1.617188 -11.929688 2.421875 -12.234375 3.484375 -12.234375 C 4.554688 -12.234375 5.359375 -11.929688 5.890625 -11.328125 C 6.429688 -10.722656 6.703125 -9.847656 6.703125 -8.703125 L 6.703125 -3.234375 C 6.703125 -2.148438 6.421875 -1.320312 5.859375 -0.75 C 5.304688 -0.175781 4.515625 0.109375 3.484375 0.109375 Z M 3.484375 -2.109375 C 3.660156 -2.109375 3.804688 -2.191406 3.921875 -2.359375 C 4.035156 -2.523438 4.09375 -2.722656 4.09375 -2.953125 L 4.09375 -8.9375 C 4.09375 -9.28125 4.050781 -9.539062 3.96875 -9.71875 C 3.894531 -9.90625 3.734375 -10 3.484375 -10 C 3.242188 -10 3.082031 -9.90625 3 -9.71875 C 2.925781 -9.539062 2.890625 -9.28125 2.890625 -8.9375 L 2.890625 -2.953125 C 2.890625 -2.722656 2.941406 -2.523438 3.046875 -2.359375 C 3.160156 -2.191406 3.304688 -2.109375 3.484375 -2.109375 Z M 3.484375 -2.109375 "/></g></g></g><g fill="#000000" fill-opacity="1"><g transform="translate(189.734854, 95.253923)"><g><path d="M 0.421875 -0.578125 C 0.421875 -1.128906 0.507812 -1.640625 0.6875 -2.109375 C 0.863281 -2.585938 1.078125 -3.015625 1.328125 -3.390625 C 1.578125 -3.765625 1.910156 -4.207031 2.328125 -4.71875 C 2.753906 -5.238281 3.085938 -5.679688 3.328125 -6.046875 C 3.578125 -6.421875 3.789062 -6.84375 3.96875 -7.3125 C 4.144531 -7.789062 4.234375 -8.304688 4.234375 -8.859375 C 4.234375 -9.191406 4.1875 -9.445312 4.09375 -9.625 C 4 -9.8125 3.828125 -9.90625 3.578125 -9.90625 C 3.179688 -9.90625 2.984375 -9.539062 2.984375 -8.8125 L 2.984375 -7.34375 L 0.421875 -7.34375 L 0.390625 -8.078125 C 0.390625 -9.003906 0.484375 -9.765625 0.671875 -10.359375 C 0.859375 -10.953125 1.1875 -11.398438 1.65625 -11.703125 C 2.132812 -12.015625 2.785156 -12.171875 3.609375 -12.171875 C 4.628906 -12.171875 5.414062 -11.882812 5.96875 -11.3125 C 6.519531 -10.75 6.796875 -9.945312 6.796875 -8.90625 C 6.796875 -8.238281 6.703125 -7.632812 6.515625 -7.09375 C 6.335938 -6.550781 6.113281 -6.078125 5.84375 -5.671875 C 5.582031 -5.265625 5.226562 -4.789062 4.78125 -4.25 C 4.457031 -3.863281 4.191406 -3.519531 3.984375 -3.21875 C 3.773438 -2.914062 3.585938 -2.601562 3.421875 -2.28125 L 6.71875 -2.28125 L 6.71875 0 L 0.421875 0 Z M 0.421875 -0.578125 "/></g></g></g><g fill="#000000" fill-opacity="1"><g transform="translate(201.187184, 95.253923)"><g><path d="M 3.328125 0.140625 C 2.265625 0.140625 1.488281 -0.132812 1 -0.6875 C 0.507812 -1.25 0.265625 -2.109375 0.265625 -3.265625 L 0.265625 -4.53125 L 2.75 -4.53125 L 2.75 -3.265625 C 2.75 -2.890625 2.796875 -2.601562 2.890625 -2.40625 C 2.984375 -2.207031 3.171875 -2.109375 3.453125 -2.109375 C 3.648438 -2.109375 3.789062 -2.175781 3.875 -2.3125 C 3.96875 -2.457031 4.023438 -2.625 4.046875 -2.8125 C 4.066406 -3.007812 4.078125 -3.289062 4.078125 -3.65625 L 4.078125 -3.953125 C 4.078125 -4.992188 3.734375 -5.515625 3.046875 -5.515625 C 2.921875 -5.515625 2.84375 -5.507812 2.8125 -5.5 L 2.8125 -7.671875 C 3.238281 -7.671875 3.5625 -7.765625 3.78125 -7.953125 C 4 -8.148438 4.109375 -8.460938 4.109375 -8.890625 C 4.109375 -9.578125 3.910156 -9.921875 3.515625 -9.921875 C 3.265625 -9.921875 3.101562 -9.859375 3.03125 -9.734375 C 2.96875 -9.609375 2.921875 -9.453125 2.890625 -9.265625 C 2.867188 -9.078125 2.851562 -8.941406 2.84375 -8.859375 L 2.84375 -8.5 L 0.34375 -8.5 L 0.328125 -8.921875 C 0.335938 -10.023438 0.597656 -10.835938 1.109375 -11.359375 C 1.628906 -11.878906 2.425781 -12.140625 3.5 -12.140625 C 5.5625 -12.140625 6.59375 -11.066406 6.59375 -8.921875 C 6.59375 -8.285156 6.503906 -7.78125 6.328125 -7.40625 C 6.160156 -7.039062 5.867188 -6.78125 5.453125 -6.625 C 5.796875 -6.457031 6.050781 -6.25 6.21875 -6 C 6.382812 -5.75 6.492188 -5.445312 6.546875 -5.09375 C 6.597656 -4.738281 6.625 -4.257812 6.625 -3.65625 C 6.625 -2.40625 6.359375 -1.457031 5.828125 -0.8125 C 5.304688 -0.175781 4.472656 0.140625 3.328125 0.140625 Z M 3.328125 0.140625 "/></g></g></g></svg>